<svg xmlns="http://www.w3.org/2000/svg" viewBox="0 0 200 200">
<defs><radialGradient id="bg4" cx="50%" cy="50%" r="50%"><stop offset="0%" stop-color="#87ceeb"/><stop offset="100%" stop-color="#4a90d9"/></radialGradient></defs>
<circle cx="100" cy="100" r="100" fill="url(#bg4)"/>
<circle cx="60" cy="40" r="2" fill="white" opacity="0.9"/>
<circle cx="150" cy="55" r="2.5" fill="white" opacity="0.7"/>
<circle cx="40" cy="90" r="1.5" fill="white" opacity="0.6"/>
<rect x="70" y="120" width="60" height="70" rx="5" fill="#c0c8d0"/>
<rect x="75" y="125" width="50" height="65" rx="3" fill="#d8e0e8"/>
<circle cx="100" cy="85" r="32" fill="#f5f0f0"/>
<path d="M72 50 Q100 38 128 50 Q132 65 128 80 Q100 73 72 80 Q68 65 72 50" fill="#d0d8e8"/>
<circle cx="88" cy="82" r="4" fill="#4488cc"/>
<circle cx="112" cy="82" r="4" fill="#4488cc"/>
<circle cx="87" cy="81" r="1.5" fill="white"/>
<circle cx="111" cy="81" r="1.5" fill="white"/>
<path d="M93 96 Q100 100 107 96" stroke="#cc8888" stroke-width="1.5" fill="none"/>
<line x1="138" y1="60" x2="142" y2="20" stroke="#8a8a8a" stroke-width="3"/>
<line x1="137" y1="20" x2="147" y2="20" stroke="#8a8a8a" stroke-width="3"/>
<rect x="85" y="125" width="30" height="8" rx="2" fill="#4a7ab5"/>
</svg>