<svg xmlns="http://www.w3.org/2000/svg" viewBox="0 0 200 200">
<defs><radialGradient id="bg1" cx="50%" cy="50%" r="50%"><stop offset="0%" stop-color="#4a1a6b"/><stop offset="100%" stop-color="#1a0a2e"/></radialGradient></defs>
<circle cx="100" cy="100" r="100" fill="url(#bg1)"/>
<ellipse cx="100" cy="130" rx="45" ry="55" fill="#1a1a2e"/>
<circle cx="100" cy="85" r="35" fill="#f0e6f6"/>
<circle cx="87" cy="82" r="5" fill="#cc0000"/>
<circle cx="113" cy="82" r="5" fill="#cc0000"/>
<circle cx="86" cy="81" r="2" fill="#ff4444"/>
<circle cx="112" cy="81" r="2" fill="#ff4444"/>
<path d="M92 96 Q100 102 108 96" stroke="#8b4557" stroke-width="2" fill="none"/>
<path d="M93 97 L95 103" stroke="white" stroke-width="1.5" fill="none"/>
<path d="M107 97 L105 103" stroke="white" stroke-width="1.5" fill="none"/>
<path d="M70 55 Q75 35 100 50 Q125 35 130 55 Q120 50 100 60 Q80 50 70 55" fill="#1a1a2e"/>
<rect x="80" y="115" width="40" height="50" rx="5" fill="#2d1a3e"/>
<path d="M75 130 L60 180 L85 165 Z" fill="#3d1a4e" opacity="0.8"/>
<path d="M125 130 L140 180 L115 165 Z" fill="#3d1a4e" opacity="0.8"/>
<circle cx="100" cy="120" r="4" fill="#cc0000" opacity="0.9"/>
</svg>