<svg xmlns="http://www.w3.org/2000/svg" viewBox="0 0 200 200">
<defs><radialGradient id="bg3" cx="50%" cy="50%" r="50%"><stop offset="0%" stop-color="#1a3a6b"/><stop offset="100%" stop-color="#0a1a3e"/></radialGradient></defs>
<circle cx="100" cy="100" r="100" fill="url(#bg3)"/>
<circle cx="40" cy="40" r="1.5" fill="white" opacity="0.8"/>
<circle cx="160" cy="30" r="1" fill="white" opacity="0.6"/>
<circle cx="150" cy="70" r="1.5" fill="white" opacity="0.7"/>
<circle cx="50" cy="150" r="1" fill="white" opacity="0.5"/>
<path d="M60 75 L100 10 L140 75 Z" fill="#2a3a7e"/>
<circle cx="90" cy="45" r="2" fill="#aaccff" opacity="0.7"/>
<circle cx="110" cy="35" r="1.5" fill="#aaccff" opacity="0.8"/>
<circle cx="105" cy="55" r="2.5" fill="#aaccff" opacity="0.6"/>
<circle cx="100" cy="95" r="30" fill="#f5e6d3"/>
<path d="M80 105 Q100 125 120 105" fill="#d4d4d4"/>
<path d="M85 115 L100 170 L115 115" fill="#c0c0c0" opacity="0.7"/>
<circle cx="90" cy="88" r="4" fill="#4488cc"/>
<circle cx="110" cy="88" r="4" fill="#4488cc"/>
<circle cx="90" cy="87" r="1.5" fill="white"/>
<circle cx="110" cy="87" r="1.5" fill="white"/>
<path d="M85 88 Q90 85 95 88" stroke="#2a3a5e" stroke-width="1.5" fill="none"/>
<path d="M105 88 Q110 85 115 88" stroke="#2a3a5e" stroke-width="1.5" fill="none"/>
<rect x="75" y="130" width="50" height="60" rx="5" fill="#2a3a7e"/>
</svg>