<svg xmlns="http://www.w3.org/2000/svg" viewBox="0 0 200 200">
<defs><radialGradient id="bg2" cx="50%" cy="50%" r="50%"><stop offset="0%" stop-color="#ff8c42"/><stop offset="100%" stop-color="#cc5500"/></radialGradient></defs>
<circle cx="100" cy="100" r="100" fill="url(#bg2)"/>
<path d="M65 55 L55 20 L80 50 Z" fill="#ff6b35"/>
<path d="M135 55 L145 20 L120 50 Z" fill="#ff6b35"/>
<path d="M67 50 L60 25 L78 48 Z" fill="#ffe0cc"/>
<path d="M133 50 L140 25 L122 48 Z" fill="#ffe0cc"/>
<ellipse cx="100" cy="135" rx="38" ry="45" fill="#fff0e6"/>
<circle cx="100" cy="85" r="35" fill="#fff5ee"/>
<circle cx="87" cy="80" r="5" fill="#ffa040"/>
<circle cx="113" cy="80" r="5" fill="#ffa040"/>
<circle cx="87" cy="79" r="2.5" fill="#1a1a1a"/>
<circle cx="113" cy="79" r="2.5" fill="#1a1a1a"/>
<circle cx="86" cy="78" r="1.2" fill="white"/>
<circle cx="112" cy="78" r="1.2" fill="white"/>
<path d="M94 95 Q100 100 106 95" stroke="#cc6644" stroke-width="2" fill="none"/>
<circle cx="78" cy="90" r="5" fill="#ffccaa" opacity="0.5"/>
<circle cx="122" cy="90" r="5" fill="#ffccaa" opacity="0.5"/>
<circle cx="80" cy="40" r="3" fill="#ff69b4" opacity="0.7"/>
<circle cx="95" cy="35" r="2.5" fill="#ffb6c1" opacity="0.6"/>
<circle cx="110" cy="37" r="2.5" fill="#ff69b4" opacity="0.7"/>
<circle cx="125" cy="42" r="2" fill="#ffb6c1" opacity="0.6"/>
</svg>